<?xml version="1.0" encoding="UTF-8"?>
<svg id="_レイヤー1" data-name="レイヤー1" xmlns="http://www.w3.org/2000/svg" viewBox="0 0 32 32">
  <defs>
    <style>
      .cls-1 {
        fill: #6f9169;
      }

      .cls-2 {
        fill: #f6f1ea;
      }

      .cls-3 {
        fill: #dae4c2;
      }
    </style>
  </defs>
  <rect class="cls-1" width="32" height="32" rx="5.94" ry="5.94"/>
  <g>
    <g>
      <path class="cls-2" d="M8.97,9.16c-.13.12-.31.23-.53.32-.22.09-.48.14-.76.14-.35,0-.65-.08-.91-.23-.26-.15-.46-.37-.6-.65-.14-.28-.21-.6-.21-.97,0-.34.08-.65.23-.93.15-.28.35-.5.61-.66.25-.16.53-.24.82-.24.43,0,.86.16,1.27.47l.04.03.49-1.17-.03-.02c-.23-.14-.5-.27-.81-.36s-.64-.14-1-.14c-.57,0-1.08.13-1.51.39-.43.26-.78.63-1.02,1.1-.24.47-.36,1-.36,1.6,0,.54.12,1.04.36,1.5.24.45.6.82,1.05,1.09.46.27,1,.4,1.61.4.39,0,.75-.06,1.07-.19.33-.12.57-.25.72-.37l.02-.02-.51-1.11-.04.04Z"/>
      <path class="cls-2" d="M13.06,7.5c-.13-.14-.28-.26-.44-.34-.19-.1-.44-.14-.75-.14s-.59.08-.86.24c-.27.16-.48.39-.64.69-.16.29-.24.64-.24,1.03,0,.61.17,1.08.49,1.4.33.31.76.47,1.28.47.42,0,.8-.16,1.12-.47v.37h1.19v-3.56h-1.11l-.06.31ZM13.03,9.36c-.17.33-.43.5-.8.5-.16,0-.3-.04-.44-.12-.13-.08-.24-.2-.32-.34s-.12-.31-.12-.48c0-.26.08-.49.25-.66.16-.17.36-.26.6-.26.2,0,.38.05.53.14.15.09.25.22.31.38v.84Z"/>
      <path class="cls-2" d="M17.15,5.56c.09-.1.21-.15.36-.15s.27.05.36.16l.04.04.52-.89-.03-.02c-.14-.1-.3-.17-.48-.22-.18-.05-.36-.07-.52-.07-.5,0-.89.15-1.16.44-.27.29-.41.68-.41,1.15v1.17h-.59v1.07h.59v2.51h1.2v-2.51h1.05v-1.07h-1.05v-1.14c0-.21.05-.37.14-.48Z"/>
      <path class="cls-2" d="M21.57,9.59c-.23.15-.46.22-.67.22-.26,0-.46-.08-.62-.24l2.52-.8v-.03c-.1-.55-.32-.98-.64-1.27-.33-.3-.75-.45-1.26-.45-.37,0-.72.09-1.03.26-.31.17-.56.4-.74.7-.18.29-.27.62-.27.96,0,.37.08.71.24.99.16.29.39.52.7.68.3.16.67.24,1.09.24.19,0,.4-.03.62-.1.21-.06.42-.15.61-.26l.04-.02-.54-.9-.03.02ZM20.03,8.87c0-.28.07-.5.21-.66.14-.16.33-.24.57-.24.33,0,.55.14.66.43l-1.44.49v-.02Z"/>
    </g>
    <path class="cls-2" d="M13.98,27.59c-7.63,0-12.01-4.14-12.01-11.35v-4.17h1.91v4.17c0,6.18,3.49,9.44,10.09,9.44s10.09-3.26,10.09-9.44v-4.12h2.57c2.48,0,4.5,2.08,4.5,4.64s-2.02,4.64-4.5,4.64v-1.91c1.43,0,2.59-1.22,2.59-2.73s-1.16-2.73-2.59-2.73h-.65v2.21c0,7.22-4.38,11.35-12.01,11.35Z"/>
    <polygon class="cls-3" points="15.91 12.12 14.56 12.12 13.03 12.12 10.38 17.58 7.66 12.12 4.78 12.12 9.14 20.27 9.14 23.31 11.47 23.31 11.47 20.27 14.69 14.37 17.32 14.37 17.32 23.31 19.66 23.31 19.66 14.37 22.53 14.37 22.53 12.12 15.91 12.12"/>
  </g>
</svg>