<?xml version="1.0" encoding="UTF-8"?>
<svg id="_レイヤー1" data-name="レイヤー1" xmlns="http://www.w3.org/2000/svg" viewBox="0 0 410 50">
  <defs>
    <style>
      .cls-1 {
        fill: #f6f1ea;
      }

      .cls-2 {
        fill: #dae4c2;
      }

      .cls-3 {
        fill: #ead0d2;
      }
    </style>
  </defs>
  <g>
    <g>
      <path class="cls-1" d="M15.05,10.91c-.27.25-.63.48-1.09.66-.46.19-.98.28-1.56.28-.71,0-1.34-.16-1.88-.48-.53-.32-.94-.77-1.23-1.33-.29-.57-.43-1.24-.43-2,0-.69.16-1.33.47-1.9.31-.57.73-1.02,1.25-1.35.52-.33,1.08-.5,1.68-.5.88,0,1.76.33,2.61.97l.09.06,1-2.41-.06-.04c-.47-.3-1.03-.55-1.66-.75-.63-.2-1.32-.3-2.06-.3-1.17,0-2.21.27-3.11.81-.89.54-1.6,1.29-2.1,2.25-.5.96-.75,2.06-.75,3.28,0,1.11.25,2.15.75,3.08.5.93,1.23,1.69,2.16,2.24.94.55,2.05.83,3.32.83.79,0,1.54-.13,2.21-.38.67-.25,1.17-.51,1.48-.77l.05-.04-1.06-2.29-.08.08Z"/>
      <path class="cls-1" d="M23.47,7.49c-.26-.3-.57-.53-.9-.7-.38-.2-.9-.3-1.55-.3s-1.22.17-1.76.5c-.55.33-.99.81-1.32,1.42-.33.6-.49,1.32-.49,2.11,0,1.26.34,2.23,1.02,2.88.67.65,1.56.97,2.64.97.86,0,1.64-.32,2.31-.96v.77h2.46v-7.33h-2.28l-.13.64ZM23.42,11.33c-.35.69-.89,1.02-1.66,1.02-.32,0-.62-.08-.9-.25-.28-.17-.5-.4-.67-.7s-.25-.63-.25-.98c0-.54.17-1,.51-1.35.34-.35.75-.53,1.23-.53.42,0,.79.1,1.09.3.3.19.52.46.64.78v1.72Z"/>
      <path class="cls-1" d="M31.88,3.5c.19-.21.43-.32.75-.32s.56.11.74.33l.08.09,1.06-1.82-.06-.04c-.28-.2-.61-.35-.99-.46-.38-.1-.74-.15-1.07-.15-1.02,0-1.83.3-2.4.9-.56.6-.85,1.4-.85,2.38v2.41h-1.21v2.2h1.21v5.16h2.46v-5.16h2.16v-2.2h-2.16v-2.34c0-.44.1-.77.28-.98Z"/>
      <path class="cls-1" d="M40.99,11.81c-.48.31-.94.46-1.38.46-.53,0-.95-.16-1.28-.49l5.19-1.65v-.07c-.21-1.13-.65-2.01-1.32-2.62-.67-.61-1.55-.92-2.59-.92-.77,0-1.48.18-2.12.53-.64.35-1.16.83-1.53,1.43-.37.6-.56,1.27-.56,1.98,0,.77.16,1.45.49,2.05.32.6.81,1.07,1.44,1.4.63.33,1.38.49,2.24.49.4,0,.83-.07,1.27-.2.44-.13.87-.31,1.26-.53l.07-.04-1.1-1.85-.07.05ZM37.82,10.32c0-.57.15-1.02.44-1.36.29-.33.67-.5,1.17-.5.68,0,1.12.29,1.35.88l-2.96,1v-.03Z"/>
    </g>
    <path class="cls-1" d="M25.35,48.85C9.65,48.85.65,40.34.65,25.49v-8.59h3.94v8.59c0,12.71,7.18,19.43,20.77,19.43s20.77-6.72,20.77-19.43v-8.48h5.28c5.11,0,9.26,4.28,9.26,9.55s-4.15,9.55-9.26,9.55v-3.94c2.94,0,5.32-2.52,5.32-5.61s-2.39-5.61-5.32-5.61h-1.35v4.55c0,14.85-9.01,23.37-24.71,23.37Z"/>
    <polygon class="cls-2" points="29.34 17 26.55 17 23.42 17 17.95 28.26 12.36 17 6.44 17 15.41 33.78 15.41 40.05 20.2 40.05 20.2 33.78 26.82 21.64 32.24 21.64 32.24 40.05 37.04 40.05 37.04 21.64 42.97 21.64 42.97 17 29.34 17"/>
  </g>
  <g>
    <g>
      <path class="cls-1" d="M100.5,47.22c-2.28.85-4.77,1.27-7.47,1.27-4.56,0-8.54-1-11.94-2.99-3.41-1.99-6.03-4.68-7.86-8.04-1.83-3.37-2.75-7.06-2.75-11.09,0-4.39.92-8.32,2.75-11.79,1.83-3.47,4.39-6.18,7.68-8.13,3.28-1.95,7.02-2.93,11.22-2.93,2.58,0,4.97.34,7.16,1.03,2.2.69,4.14,1.55,5.83,2.6l-2.78,6.59c-3.26-2.3-6.59-3.45-9.98-3.45-2.58,0-4.99.7-7.22,2.09-2.24,1.39-4.02,3.29-5.35,5.68-1.33,2.4-2,5.03-2,7.89,0,3.02.61,5.73,1.84,8.13,1.23,2.4,2.98,4.27,5.26,5.62,2.28,1.35,4.91,2.03,7.89,2.03,2.14,0,4.06-.32,5.77-.97,1.71-.64,3.15-1.47,4.32-2.48l2.96,6.29c-1.29.93-3.07,1.81-5.35,2.66Z"/>
      <path class="cls-1" d="M138.33,22.43v25.57h-6.77v-3.69c-.93,1.09-2.18,2.09-3.75,2.99s-3.41,1.36-5.5,1.36c-2.46,0-4.66-.51-6.59-1.54-1.93-1.03-3.47-2.55-4.59-4.56-1.13-2.01-1.69-4.45-1.69-7.32s.58-5.23,1.75-7.35c1.17-2.12,2.73-3.75,4.69-4.9,1.95-1.15,4.1-1.72,6.44-1.72,4.15,0,7.26,1.53,9.31,4.6l.48-3.45h6.23ZM128.87,41.69c1.27-.95,2.17-2.29,2.69-4.02v-5.56c-.48-1.57-1.42-2.84-2.81-3.81s-2.99-1.45-4.81-1.45c-2.14,0-3.95.76-5.44,2.27-1.49,1.51-2.24,3.44-2.24,5.77,0,1.53.36,2.92,1.09,4.17.73,1.25,1.69,2.24,2.9,2.96,1.21.73,2.52,1.09,3.93,1.09,1.85,0,3.42-.47,4.69-1.42Z"/>
      <path class="cls-1" d="M147.77,28.36h-4.35v-5.99h4.35v-10.04c0-3.59.91-6.39,2.72-8.4,1.81-2.02,4.41-3.02,7.8-3.02,1.01,0,2.1.15,3.26.45,1.17.3,2.18.74,3.02,1.3l-2.84,4.9c-.69-.73-1.59-1.09-2.72-1.09-2.98,0-4.47,2.02-4.47,6.05v9.85h7.98v5.99h-7.98v19.65h-6.77v-19.65Z"/>
      <path class="cls-1" d="M186.01,40.87l3.08,5.02c-1.37.85-2.84,1.52-4.41,2.03s-3.08.76-4.53.76c-2.94,0-5.49-.58-7.65-1.75-2.16-1.17-3.81-2.78-4.96-4.84-1.15-2.06-1.72-4.41-1.72-7.07,0-2.5.64-4.8,1.93-6.89,1.29-2.1,3.04-3.76,5.26-4.99,2.22-1.23,4.63-1.84,7.26-1.84,3.47,0,6.35,1.02,8.65,3.05,2.3,2.04,3.83,4.91,4.59,8.62l-19.71,6.65c.68,1.05,1.59,1.85,2.72,2.42,1.13.56,2.38.85,3.75.85,1.89,0,3.81-.67,5.74-2ZM174.49,28.84c-1.35,1.49-2.03,3.43-2.03,5.8,0,.44.02.79.06,1.03l13.42-4.78c-.52-1.25-1.29-2.28-2.3-3.08-1.01-.81-2.32-1.21-3.93-1.21-2.14,0-3.88.75-5.23,2.24Z"/>
      <path class="cls-1" d="M232.53,27.99c1.23-2.1,2.93-3.74,5.11-4.93,2.18-1.19,4.66-1.78,7.44-1.78s5.25.6,7.41,1.78c2.16,1.19,3.82,2.82,4.99,4.9,1.17,2.08,1.75,4.4,1.75,6.98s-.58,4.91-1.75,6.98c-1.17,2.08-2.83,3.72-4.99,4.93-2.16,1.21-4.65,1.81-7.47,1.81s-5.2-.55-7.38-1.66c-2.18-1.11-3.88-2.7-5.11-4.78-1.23-2.08-1.84-4.5-1.84-7.29,0-2.54.61-4.86,1.84-6.95ZM239.63,40.78c1.41,1.55,3.16,2.33,5.26,2.33s3.96-.77,5.35-2.3c1.39-1.53,2.09-3.47,2.09-5.8s-.7-4.28-2.09-5.83c-1.39-1.55-3.17-2.33-5.35-2.33s-3.85.8-5.26,2.39c-1.41,1.59-2.12,3.52-2.12,5.77s.7,4.22,2.12,5.77Z"/>
      <path class="cls-1" d="M289.3,22.43v25.57h-6.11l-.42-4.59c-.89,1.73-2.2,3.11-3.93,4.14-1.73,1.03-3.71,1.54-5.92,1.54-2.34,0-4.28-.72-5.83-2.15-1.55-1.43-2.35-3.27-2.39-5.53v-18.98h6.77v16.57c.12,2.82,1.51,4.25,4.17,4.29,1.97,0,3.62-.91,4.93-2.72,1.31-1.81,1.96-4.09,1.96-6.83v-11.31h6.77Z"/>
      <path class="cls-1" d="M306.15,24.67c1.25-1.09,2.53-1.92,3.84-2.51,1.31-.58,2.41-.88,3.3-.88l-.3,6.77c-1.85-.16-3.51.17-4.96,1-1.45.83-2.58,1.96-3.39,3.39-.81,1.43-1.21,2.95-1.21,4.56v11h-6.77v-25.57h6.11l.48,5.92c.68-1.37,1.65-2.6,2.9-3.69Z"/>
      <path class="cls-1" d="M352.77,3.99v6.77h-11.37v37.24h-7.01V10.76h-11.06V3.99h29.44Z"/>
      <path class="cls-1" d="M369.27,40.87l3.08,5.02c-1.37.85-2.84,1.52-4.41,2.03s-3.08.76-4.53.76c-2.94,0-5.49-.58-7.65-1.75-2.16-1.17-3.81-2.78-4.96-4.84-1.15-2.06-1.72-4.41-1.72-7.07,0-2.5.64-4.8,1.93-6.89,1.29-2.1,3.04-3.76,5.26-4.99,2.22-1.23,4.63-1.84,7.26-1.84,3.47,0,6.35,1.02,8.65,3.05,2.3,2.04,3.83,4.91,4.59,8.62l-19.71,6.65c.68,1.05,1.59,1.85,2.72,2.42,1.13.56,2.38.85,3.75.85,1.89,0,3.81-.67,5.74-2ZM357.75,28.84c-1.35,1.49-2.03,3.43-2.03,5.8,0,.44.02.79.06,1.03l13.42-4.78c-.52-1.25-1.29-2.28-2.3-3.08-1.01-.81-2.32-1.21-3.93-1.21-2.14,0-3.88.75-5.23,2.24Z"/>
      <path class="cls-1" d="M409.35,22.43v25.57h-6.77v-3.69c-.93,1.09-2.18,2.09-3.75,2.99-1.57.91-3.41,1.36-5.5,1.36-2.46,0-4.66-.51-6.59-1.54-1.93-1.03-3.47-2.55-4.59-4.56-1.13-2.01-1.69-4.45-1.69-7.32s.58-5.23,1.75-7.35c1.17-2.12,2.73-3.75,4.69-4.9,1.95-1.15,4.1-1.72,6.44-1.72,4.15,0,7.26,1.53,9.31,4.6l.48-3.45h6.23ZM399.89,41.69c1.27-.95,2.17-2.29,2.69-4.02v-5.56c-.48-1.57-1.42-2.84-2.81-3.81s-2.99-1.45-4.81-1.45c-2.14,0-3.95.76-5.44,2.27-1.49,1.51-2.24,3.44-2.24,5.77,0,1.53.36,2.92,1.09,4.17.73,1.25,1.69,2.24,2.9,2.96,1.21.73,2.52,1.09,3.93,1.09,1.85,0,3.42-.47,4.69-1.42Z"/>
    </g>
    <g>
      <path class="cls-1" d="M200.29,1.09l7.55,12.91c.04.07.07.13.08.13s.04.07.08.13l6.28,10.7,2.27-3.87c.05-.08.09-.16.1-.16,0-.01.05-.08.1-.17l2.55-4.34-8.98-15.33h-10.04Z"/>
      <path class="cls-3" d="M231.95,1.09l-10.76,18.56-4.03,6.94c-.04.07-.07.13-.07.13,0,0-.04.06-.08.13l-.81,1.38-6.66,11.35-.38,9.18h0l7.71-4.73c.07-.04.12-.07.12-.07,0,0,.03-.05.07-.12l4.81-8.19.66-1.12.21-.36,3.49-5.94,2.59-4.41c.04-.06.07-.12.08-.13,0,0,.04-.07.07-.13l12.99-22.48h-10.02ZM214.47,43.99l-3.91,2.4h0l.19-4.58h0s3.72,2.18,3.72,2.18h0Z"/>
    </g>
  </g>
</svg>