<?xml version="1.0" encoding="UTF-8"?>
<svg id="_レイヤー1" data-name="レイヤー1" xmlns="http://www.w3.org/2000/svg" viewBox="0 0 410 50">
  <defs>
    <style>
      .cls-1 {
        fill: #f6f1ea;
      }

      .cls-2 {
        fill: #dae4c2;
      }

      .cls-3 {
        fill: #ead0d2;
      }
    </style>
  </defs>
  <g>
    <g>
      <path class="cls-1" d="M194.76.36l10.46,17.88c.04.08.09.15.09.15,0,.01.05.08.09.15l4.39,7.48,2.13-3.62c.05-.09.09-.16.1-.17,0,0,.05-.08.1-.17l3.61-6.14L206.6.36h-11.84Z"/>
      <path class="cls-3" d="M227.97.36l-10.64,18.31-2.49,4.28c-.04.07-.09.15-.09.15,0,0-.04.07-.09.15l-3.25,5.53-5.58,9.5-.45,10.84h0l9.12-5.59c.07-.04.14-.08.14-.08,0,0,.04-.07.08-.14l2.62-4.45,5.92-10.09,5.35-9.1c.04-.08.09-.15.09-.15,0-.01.05-.08.09-.16,0,0,7.22-12.47,11-19.01h-11.82ZM207.03,46.32h0s.22-5.42.22-5.42h0l4.4,2.59-4.62,2.84Z"/>
    </g>
    <g>
      <path class="cls-1" d="M98.75,47.44c-2.48.94-5.19,1.4-8.12,1.4-4.68,0-8.75-1.02-12.21-3.05-3.46-2.04-6.11-4.77-7.94-8.21-1.83-3.44-2.75-7.22-2.75-11.33,0-4.52.92-8.55,2.75-12.09,1.83-3.54,4.4-6.3,7.7-8.28,3.3-1.97,7.1-2.96,11.42-2.96,2.73,0,5.25.37,7.57,1.1,2.32.73,4.36,1.65,6.11,2.75l-3.48,8.37c-3.22-2.44-6.51-3.66-9.89-3.66-2.28,0-4.42.63-6.41,1.89-2,1.26-3.58,2.98-4.76,5.16-1.18,2.18-1.77,4.59-1.77,7.24,0,2.89.55,5.43,1.65,7.6,1.1,2.18,2.67,3.88,4.7,5.1,2.04,1.22,4.42,1.83,7.15,1.83,2.2,0,4.17-.36,5.92-1.07,1.75-.71,3.13-1.56,4.15-2.53l3.66,7.94c-1.14.94-2.95,1.87-5.44,2.81Z"/>
      <path class="cls-1" d="M136.94,21.67v26.69h-8.55v-3.3c-2.56,2.69-5.54,4.03-8.92,4.03-3.95,0-7.16-1.18-9.62-3.54-2.46-2.36-3.69-5.86-3.69-10.5,0-2.93.6-5.51,1.8-7.72,1.2-2.22,2.8-3.94,4.79-5.16,1.99-1.22,4.13-1.83,6.41-1.83s4.23.36,5.62,1.07c1.38.71,2.61,1.72,3.66,3.02l.55-2.75h7.94ZM128.39,38.1v-6.53c-.49-1.3-1.33-2.34-2.53-3.11-1.2-.77-2.62-1.16-4.24-1.16-1.87,0-3.47.69-4.79,2.08-1.32,1.38-1.98,3.14-1.98,5.25,0,1.38.33,2.66.98,3.82.65,1.16,1.52,2.07,2.6,2.72,1.08.65,2.25.98,3.51.98,2.97,0,5.13-1.34,6.47-4.03Z"/>
      <path class="cls-1" d="M145.22,29.12h-4.52v-7.57h4.52v-9.28c0-3.58,1.03-6.46,3.08-8.64,2.06-2.18,4.96-3.27,8.7-3.27,1.22,0,2.52.18,3.91.55,1.38.37,2.59.92,3.6,1.65l-3.6,6.17c-.73-.89-1.73-1.34-2.99-1.34s-2.27.43-3.02,1.28c-.75.85-1.13,2.14-1.13,3.85v9.04h8.06v7.57h-8.06v19.24h-8.55v-19.24Z"/>
      <path class="cls-1" d="M184.73,40.05l3.79,6.35c-1.47.81-3.01,1.47-4.64,1.95-1.63.49-3.18.73-4.64.73-3.18,0-5.91-.6-8.21-1.8-2.3-1.2-4.04-2.89-5.22-5.07-1.18-2.18-1.77-4.67-1.77-7.48,0-2.6.68-5.01,2.05-7.21,1.36-2.2,3.23-3.94,5.59-5.22,2.36-1.28,4.95-1.92,7.76-1.92,3.83,0,6.97,1.12,9.44,3.36,2.46,2.24,4.06,5.43,4.79,9.59l-19.54,6.23c1.3,1.51,3.07,2.26,5.31,2.26,1.71,0,3.48-.59,5.31-1.77ZM174.16,29c-1.14,1.3-1.71,3.05-1.71,5.25v.55l11.73-3.97c-.85-2.52-2.67-3.79-5.44-3.79-1.91,0-3.44.65-4.58,1.95Z"/>
      <path class="cls-1" d="M229.65,27.35c1.28-2.16,3.09-3.86,5.44-5.1,2.34-1.24,5-1.86,7.97-1.86s5.59.62,7.85,1.86c2.26,1.24,4,2.94,5.22,5.1,1.22,2.16,1.83,4.6,1.83,7.33s-.61,5.19-1.83,7.39c-1.22,2.2-2.96,3.92-5.22,5.16-2.26,1.24-4.92,1.86-7.97,1.86s-5.61-.58-7.91-1.74c-2.3-1.16-4.09-2.82-5.37-4.98-1.28-2.16-1.92-4.72-1.92-7.7,0-2.73.64-5.17,1.92-7.33ZM238.17,40.02c1.22,1.4,2.77,2.11,4.64,2.11s3.53-.69,4.73-2.08c1.2-1.38,1.8-3.15,1.8-5.31s-.6-3.93-1.8-5.31c-1.2-1.38-2.78-2.08-4.73-2.08s-3.42.7-4.64,2.11c-1.22,1.4-1.83,3.17-1.83,5.28s.61,3.88,1.83,5.28Z"/>
      <path class="cls-1" d="M288.88,21.67v26.69h-7.76l-.61-4.27c-.94,1.71-2.25,3.06-3.94,4.06-1.69,1-3.67,1.5-5.95,1.5-2.44,0-4.48-.75-6.11-2.26-1.63-1.51-2.46-3.42-2.5-5.74v-19.97h8.55v16.79c.12,2.61,1.32,3.91,3.6,3.91,1.87,0,3.37-.92,4.49-2.75,1.12-1.83,1.68-4.19,1.68-7.08v-10.87h8.55Z"/>
      <path class="cls-1" d="M306.08,23.93c1.28-1.14,2.6-2.03,3.94-2.66,1.34-.63,2.4-.95,3.18-.95l-.43,8.55c-.24-.04-.59-.06-1.04-.06-1.71,0-3.22.45-4.52,1.34-1.3.9-2.3,2.05-2.99,3.45-.69,1.4-1.04,2.84-1.04,4.3v10.44h-8.49v-26.69h7.69l.67,6.11c.73-1.42,1.74-2.71,3.02-3.85Z"/>
      <path class="cls-1" d="M351.12,3.41v8.55h-10.93v36.4h-8.86V11.96h-10.5V3.41h30.29Z"/>
      <path class="cls-1" d="M366.45,40.05l3.79,6.35c-1.47.81-3.01,1.47-4.64,1.95-1.63.49-3.18.73-4.64.73-3.18,0-5.91-.6-8.21-1.8-2.3-1.2-4.04-2.89-5.22-5.07-1.18-2.18-1.77-4.67-1.77-7.48,0-2.6.68-5.01,2.05-7.21,1.36-2.2,3.23-3.94,5.59-5.22,2.36-1.28,4.95-1.92,7.76-1.92,3.83,0,6.97,1.12,9.44,3.36,2.46,2.24,4.06,5.43,4.79,9.59l-19.54,6.23c1.3,1.51,3.07,2.26,5.31,2.26,1.71,0,3.48-.59,5.31-1.77ZM355.88,29c-1.14,1.3-1.71,3.05-1.71,5.25v.55l11.73-3.97c-.85-2.52-2.67-3.79-5.44-3.79-1.91,0-3.44.65-4.58,1.95Z"/>
      <path class="cls-1" d="M409.44,21.67v26.69h-8.55v-3.3c-2.56,2.69-5.54,4.03-8.92,4.03-3.95,0-7.16-1.18-9.62-3.54-2.46-2.36-3.69-5.86-3.69-10.5,0-2.93.6-5.51,1.8-7.72,1.2-2.22,2.8-3.94,4.79-5.16,1.99-1.22,4.13-1.83,6.41-1.83s4.23.36,5.62,1.07c1.38.71,2.61,1.72,3.66,3.02l.55-2.75h7.94ZM400.89,38.1v-6.53c-.49-1.3-1.33-2.34-2.53-3.11-1.2-.77-2.62-1.16-4.24-1.16-1.87,0-3.47.69-4.79,2.08-1.32,1.38-1.98,3.14-1.98,5.25,0,1.38.33,2.66.98,3.82.65,1.16,1.52,2.07,2.6,2.72,1.08.65,2.25.98,3.51.98,2.97,0,5.13-1.34,6.47-4.03Z"/>
    </g>
  </g>
  <g>
    <g>
      <path class="cls-1" d="M15.17,10.33c-.27.26-.64.48-1.1.67-.46.19-1,.29-1.58.29-.72,0-1.36-.16-1.9-.49-.54-.32-.96-.78-1.25-1.35-.29-.58-.44-1.26-.44-2.03,0-.7.16-1.35.47-1.93.31-.58.74-1.04,1.27-1.37.53-.33,1.1-.5,1.7-.5.9,0,1.79.33,2.64.98l.09.07,1.02-2.44-.06-.04c-.48-.3-1.05-.56-1.68-.76s-1.34-.3-2.09-.3c-1.19,0-2.25.28-3.15.82-.91.54-1.62,1.31-2.13,2.29-.5.97-.76,2.09-.76,3.33,0,1.13.25,2.18.76,3.13.5.95,1.24,1.71,2.19,2.27.95.56,2.08.84,3.37.84.8,0,1.56-.13,2.24-.39.68-.26,1.19-.52,1.5-.78l.05-.04-1.07-2.33-.08.08Z"/>
      <path class="cls-1" d="M23.71,6.86c-.27-.3-.57-.54-.91-.71-.39-.2-.92-.3-1.57-.3s-1.24.17-1.79.51c-.55.34-1,.82-1.34,1.44-.33.61-.5,1.33-.5,2.14,0,1.28.35,2.26,1.03,2.92.68.66,1.58.99,2.68.99.88,0,1.66-.33,2.35-.98v.78h2.5v-7.43h-2.31l-.13.65ZM23.66,10.75c-.35.7-.9,1.03-1.68,1.03-.33,0-.63-.09-.91-.25-.28-.17-.51-.41-.68-.71s-.26-.64-.26-1c0-.55.17-1.01.52-1.37.34-.36.76-.54,1.25-.54.43,0,.8.1,1.11.3.31.2.53.46.65.79v1.74Z"/>
      <path class="cls-1" d="M32.25,2.81c.19-.22.44-.32.76-.32s.57.11.75.34l.08.09,1.08-1.85-.06-.04c-.28-.2-.62-.36-1.01-.46-.38-.1-.75-.15-1.09-.15-1.04,0-1.86.31-2.43.92-.57.61-.86,1.42-.86,2.41v2.44h-1.23v2.23h1.23v5.24h2.5v-5.24h2.2v-2.23h-2.2v-2.38c0-.44.1-.78.29-.99Z"/>
      <path class="cls-1" d="M41.49,11.24c-.48.31-.95.47-1.4.47-.53,0-.97-.17-1.3-.49l5.27-1.68v-.07c-.21-1.14-.66-2.04-1.34-2.66-.68-.62-1.57-.94-2.63-.94-.78,0-1.5.18-2.15.53-.65.36-1.18.84-1.55,1.45-.38.61-.57,1.28-.57,2.01,0,.78.17,1.47.49,2.08.33.61.82,1.08,1.46,1.41.64.33,1.4.5,2.28.5.4,0,.84-.07,1.29-.2.45-.13.88-.32,1.28-.54l.08-.04-1.12-1.88-.07.05ZM38.28,9.73c0-.57.15-1.04.45-1.38.3-.34.68-.5,1.18-.5.69,0,1.14.29,1.37.9l-3,1.02v-.03Z"/>
    </g>
    <path class="cls-1" d="M25.63,48.83C9.69,48.83.56,40.18.56,25.12v-8.71h4v8.71c0,12.9,7.29,19.71,21.07,19.71s21.07-6.82,21.07-19.71v-8.61h5.36c5.18,0,9.4,4.35,9.4,9.69s-4.22,9.69-9.4,9.69v-4c2.98,0,5.4-2.55,5.4-5.69s-2.42-5.69-5.4-5.69h-1.37v4.61c0,15.07-9.14,23.71-25.07,23.71Z"/>
    <polygon class="cls-2" points="29.67 16.51 26.84 16.51 23.66 16.51 18.12 27.93 12.44 16.51 6.43 16.51 15.53 33.53 15.53 39.89 20.4 39.89 20.4 33.53 27.11 21.21 32.62 21.21 32.62 39.89 37.49 39.89 37.49 21.21 43.5 21.21 43.5 16.51 29.67 16.51"/>
  </g>
</svg>